<svg xmlns="http://www.w3.org/2000/svg" viewBox="0 0 256 256" fill="none">
  <rect width="256" height="256" rx="24" fill="#f8fafc"/>
  <rect x="24" y="24" width="208" height="208" rx="16" fill="#eff6ff" stroke="#bfdbfe" stroke-width="2"/>
  <!-- Grid lines -->
  <line x1="24" y1="96" x2="232" y2="96" stroke="#dbeafe" stroke-width="1"/>
  <line x1="24" y1="160" x2="232" y2="160" stroke="#dbeafe" stroke-width="1"/>
  <line x1="96" y1="24" x2="96" y2="232" stroke="#dbeafe" stroke-width="1"/>
  <line x1="160" y1="24" x2="160" y2="232" stroke="#dbeafe" stroke-width="1"/>
  <!-- Map shapes -->
  <path d="M60 80 L120 60 L180 90 L200 150 L160 190 L80 180 L50 130 Z" fill="#2563eb" fill-opacity="0.15" stroke="#2563eb" stroke-width="2"/>
  <path d="M100 110 L140 100 L170 130 L150 160 L110 150 Z" fill="#2563eb" fill-opacity="0.25" stroke="#2563eb" stroke-width="1.5"/>
  <!-- Map pins -->
  <circle cx="128" cy="128" r="8" fill="#2563eb"/>
  <circle cx="128" cy="128" r="3" fill="#fff"/>
  <circle cx="80" cy="100" r="5" fill="#f59e0b"/>
  <circle cx="80" cy="100" r="2" fill="#fff"/>
  <circle cx="170" cy="150" r="5" fill="#10b981"/>
  <circle cx="170" cy="150" r="2" fill="#fff"/>
</svg>
